HIERARCHY
ROOT Hips
{
  OFFSET 43.0842 91.1655 101.099
  CHANNELS 6 Xposition Yposition Zposition Zrotation Xrotation Yrotation
  JOINT LeftUpLeg
  {
    OFFSET 8.64259 1.95398 -2.38835
    CHANNELS 3 Zrotation Xrotation Yrotation
    JOINT LeftLeg
    {
      OFFSET 43.7702 0 0
      CHANNELS 3 Zrotation Xrotation Yrotation
      JOINT LeftFoot
      {
        OFFSET 40.6238 0 0
        CHANNELS 3 Zrotation Xrotation Yrotation
        JOINT LeftToeBase
        {
          OFFSET 12.7242 0 0
          CHANNELS 3 Zrotation Xrotation Yrotation
          End Site
          {
            OFFSET 0 0 0
          }
        }
      }
    }
  }
  JOINT RightUpLeg
  {
    OFFSET -8.2249 1.95398 -2.59336
    CHANNELS 3 Zrotation Xrotation Yrotation
    JOINT RightLeg
    {
      OFFSET 43.5653 0 0
      CHANNELS 3 Zrotation Xrotation Yrotation
      JOINT RightFoot
      {
        OFFSET 40.6238 0 0
        CHANNELS 3 Zrotation Xrotation Yrotation
        JOINT RightToeBase
        {
          OFFSET 12.7242 0 0
          CHANNELS 3 Zrotation Xrotation Yrotation
          End Site
          {
            OFFSET 0 0 0
          }
        }
      }
    }
  }
  JOINT Spine
  {
    OFFSET 0.165834 0.87714 6.61349
    CHANNELS 3 Zrotation Xrotation Yrotation
    JOINT Spine1
    {
      OFFSET 7.38963 1.71661e-005 0
      CHANNELS 3 Zrotation Xrotation Yrotation
      JOINT Spine2
      {
        OFFSET 11.9445 1.14441e-005 0
        CHANNELS 3 Zrotation Xrotation Yrotation
        JOINT Spine3
        {
          OFFSET 14.7254 4.19617e-005 0
          CHANNELS 3 Zrotation Xrotation Yrotation
          JOINT Spine4
          {
            OFFSET 10.9679 0 0
            CHANNELS 3 Zrotation Xrotation Yrotation
            JOINT RightShoulder
            {
              OFFSET 2.46616 -1.6653 3.69651
              CHANNELS 3 Zrotation Xrotation Yrotation
              JOINT RightArm
              {
                OFFSET 13.0012 0 0
                CHANNELS 3 Zrotation Xrotation Yrotation
                JOINT RightForeArm
                {
                  OFFSET 28.7848 1.52588e-005 0
                  CHANNELS 3 Zrotation Xrotation Yrotation
                  JOINT RightHand
                  {
                    OFFSET 26.5688 1.52588e-005 0
                    CHANNELS 3 Zrotation Xrotation Yrotation
                    End Site
                    {
                      OFFSET 0 0 0
                    }
                  }
                }
              }
            }
            JOINT LeftShoulder
            {
              OFFSET 2.38034 -1.29275 -3.7523
              CHANNELS 3 Zrotation Xrotation Yrotation
              JOINT LeftArm
              {
                OFFSET 16.3182 6.10351e-005 0
                CHANNELS 3 Zrotation Xrotation Yrotation
                JOINT LeftForeArm
                {
                  OFFSET 27.0901 0 0
                  CHANNELS 3 Zrotation Xrotation Yrotation
                  JOINT LeftHand
                  {
                    OFFSET 24.5451 1.52588e-005 0
                    CHANNELS 3 Zrotation Xrotation Yrotation
                    End Site
                    {
                      OFFSET 0 0 0
                    }
                  }
                }
              }
            }
            JOINT Neck
            {
              OFFSET 5.0226 -0.0266342 0
              CHANNELS 3 Zrotation Xrotation Yrotation
              JOINT Head
              {
                OFFSET 6.69364 2.86102e-005 0
                CHANNELS 3 Zrotation Xrotation Yrotation
                End Site
                {
                  OFFSET 0 0 0
                }
              }
            }
          }
        }
      }
    }
  }
}
MOTION
Frames:	14
Frame Time:	0.0333333
14.6182 91.5092 -4.89138 93.0858 -37.9157 92.5408 -171.953 6.72162 96.221 -31.5605 20.589 -1.37348 64.3398 5.70128 16.9815 37.1869 9.25888 2.7252 171.575 13.5622 79.8543 -17.244 1.91729 0.189047 59.4014 1.48086 -3.96034 28.8968 -0.808373 2.0659 -0.249537 7.3957 -89.9594 12.0808 -0.476726 0.133473 0.409902 -0.470401 0.154322 -22.126 -0.494825 -0.0159826 -2.11331 -0.494796 -0.0159815 91.5444 -58.0658 -96.9314 16.3193 26.2393 -22.3231 -16.6028 -1.58088 -79.3147 -11.4496 -1.85148 2.7964 -96.151 -50.8675 69.8822 -5.03454 18.7327 -55.18 17.6943 3.2349 -109.523 15.2175 1.48772 3.66008 -23.448 -15.9456 -8.83773 4.81 -17.7241 -12.7514 
14.6166 91.5192 -4.84282 93.082 -38.043 92.5274 -171.92 6.59567 96.213 -31.2818 19.6895 -1.39687 64.4134 5.77598 16.4662 37.2642 9.33053 2.78224 171.703 13.5079 79.9665 -17.0376 2.43616 0.0928681 59.2671 1.53901 -3.77486 29.072 -0.833323 1.86917 -0.279964 7.39369 -89.9404 12.087 -0.528353 0.176939 0.416149 -0.520072 0.200024 -22.1199 -0.557106 0.00995731 -2.10722 -0.557101 0.00995738 91.2685 -58.284 -97.2789 16.4621 25.9005 -22.4353 -16.6807 -1.69288 -79.4581 -11.6445 -1.90952 2.75739 -95.7085 -50.5949 70.4442 -5.4026 18.9707 -54.7216 18.0352 2.77147 -109.856 15.7028 1.59522 3.27105 -23.0454 -15.7662 -8.56753 5.09842 -17.4947 -12.4579 
14.5499 91.55 -4.77886 92.8898 -38.123 92.426 -171.856 6.69548 96.2886 -31.1069 19.7418 -1.48243 64.41 5.75701 16.5953 37.1891 9.26974 2.70687 171.778 13.7191 80.0184 -17.2351 1.91559 0.108859 59.2408 1.58445 -3.86001 29.0123 -0.726133 1.65896 -0.255462 7.37282 -89.9478 12.1286 -0.48312 0.157565 0.457766 -0.475693 0.178668 -22.0781 -0.508125 0.00507868 -2.06545 -0.508133 0.00507292 91.4008 -58.3665 -97.0797 16.4516 25.956 -22.2782 -16.562 -1.8308 -79.7258 -11.5496 -1.87144 3.10677 -95.8924 -50.7198 70.2136 -5.2254 18.8895 -54.6432 18.1984 2.56123 -110.103 15.4408 1.55609 3.17273 -22.8881 -15.8594 -8.51573 5.39554 -17.605 -12.5325 
14.5095 91.5827 -4.74309 92.8695 -38.1312 92.409 -171.876 6.63729 96.2743 -30.9385 19.1937 -1.46284 64.4325 5.75448 16.234 37.0345 9.09552 2.66338 171.787 13.6607 80.0864 -17.0213 1.97944 0.12893 59.2643 1.58894 -4.09402 28.8688 -0.650129 1.66477 -0.240868 7.37672 -89.948 12.1208 -0.454182 0.153856 0.44987 -0.446936 0.173686 -22.0859 -0.479435 0.0102334 -2.07327 -0.479406 0.0102371 91.6119 -58.153 -96.8219 16.9002 25.8732 -22.2407 -16.3715 -1.80583 -79.6936 -10.4939 -1.5633 3.04301 -96.0365 -50.8737 70.0506 -4.78206 18.8134 -54.8418 18.4831 2.28873 -110.117 15.0011 1.47336 3.28016 -22.3309 -15.9221 -8.1508 4.74229 -17.5661 -13.0143 
14.4449 91.6154 -4.73027 92.8247 -38.3184 92.2902 -171.921 6.52861 96.1877 -30.6139 18.9809 -1.52475 64.3995 5.54049 16.2794 37.0282 9.17074 2.47475 171.893 13.6995 80.1304 -16.7561 2.4547 0.0331331 59.0364 1.65984 -3.98948 29.0462 -0.88689 2.06021 -0.260285 7.36004 -89.8839 12.1545 -0.462397 0.282961 0.483594 -0.449488 0.30303 -22.0522 -0.52606 0.1309 -2.03951 -0.526062 0.130899 91.109 -58.7942 -97.4097 16.3309 24.7623 -22.0131 -16.2731 -1.1574 -79.0374 -10.7949 -1.66372 2.69473 -95.4689 -50.5059 70.7678 -4.81708 19.2421 -54.8231 18.2062 2.05034 -109.951 15.0244 1.46461 3.48395 -22.3776 -15.7168 -8.35955 4.24532 -17.3234 -12.9916 
14.404 91.6432 -4.76125 92.7331 -38.4505 92.1745 -171.964 6.49221 96.082 -30.4064 19.3169 -1.61502 64.4725 5.57524 16.8347 36.6934 8.69348 2.60677 171.915 13.8219 80.0627 -16.8004 1.9239 0.0207783 58.9509 1.59228 -3.88142 28.9612 -0.685654 1.62348 -0.245024 7.34071 -89.8622 12.193 -0.421658 0.322131 0.52206 -0.407076 0.340382 -22.0135 -0.498983 0.18051 -2.00088 -0.498979 0.180512 90.9338 -59.0274 -97.6111 16.036 24.234 -21.7131 -15.9763 -0.788083 -78.7394 -11.112 -1.75756 2.65697 -95.5875 -50.6195 70.6281 -4.44226 19.7029 -54.8015 17.9927 1.67179 -109.649 15.2585 1.50252 3.53377 -22.603 -15.669 -8.44697 4.10525 -17.2885 -13.0185 
14.396 91.6139 -4.8363 92.9071 -38.5772 92.1603 -172.048 6.25215 95.8895 -30.2793 19.1768 -1.60448 64.5821 5.7658 16.9203 36.5331 8.39572 2.81938 171.935 13.8113 79.9848 -16.7468 2.25393 -0.0770338 58.9789 1.5314 -3.90782 28.9618 -0.783754 1.89799 -0.151943 7.41351 -89.9391 12.0472 -0.273245 0.151204 0.376239 -0.26633 0.163076 -22.1591 -0.306051 0.062091 -2.14649 -0.306076 0.0620903 91.7561 -57.5901 -96.716 17.1546 24.6058 -22.1586 -16.1027 -0.877423 -78.6847 -10.5384 -1.59655 2.51137 -96.87 -51.5745 69.0617 -4.30185 18.4061 -55.4172 17.3245 2.98527 -109.535 15.7084 1.57822 3.59289 -22.1495 -16.1715 -7.83227 4.132 -17.7356 -13.214 
14.3934 91.6183 -4.88206 92.9117 -38.6168 92.0278 -172.114 6.1973 95.7278 -30.205 19.2122 -1.61148 64.4584 5.5701 16.8507 36.6774 8.56225 2.85333 171.925 13.9501 79.8263 -16.9693 1.93803 -0.108335 58.982 1.55634 -3.72247 28.9863 -0.634678 1.44188 -0.117046 7.43884 -89.946 11.9963 -0.2072 0.130375 0.325383 -0.201269 0.13936 -22.2099 -0.236796 0.0620799 -2.19724 -0.236814 0.0620644 92.0372 -57.3075 -96.3683 17.3229 24.6851 -22.3602 -16.5175 -0.955988 -78.5081 -9.69375 -1.3642 2.25512 -97.1978 -51.7342 68.6395 -4.44531 17.9477 -55.7037 17.1395 3.43796 -109.494 15.9164 1.60619 3.74959 -21.9915 -16.3238 -7.88366 4.24911 -17.8673 -12.9079 
14.3879 91.6654 -4.94585 92.9946 -38.5159 91.954 -172.23 6.27036 95.5978 -30.3559 19.1355 -1.58461 64.5724 5.62811 17.0793 36.4761 8.424 2.5995 171.701 13.7443 79.6655 -16.5344 2.04729 -0.0414636 58.9223 1.46077 -3.85909 28.8456 -0.70162 1.84405 -0.114512 7.43992 -89.9324 11.9958 -0.195715 0.156174 0.32488 -0.188682 0.164632 -22.2104 -0.233622 0.0901329 -2.19771 -0.233644 0.090119 91.9584 -57.6178 -96.427 17.0009 24.6059 -22.1295 -16.1786 -0.869776 -78.3765 -9.82734 -1.42024 1.85789 -97.3012 -51.7541 68.4975 -4.54598 18.0272 -55.5343 16.6189 3.5616 -109.508 16.0034 1.61659 3.84188 -22.3804 -16.3465 -7.98695 4.56593 -17.968 -12.9759 
14.4148 91.6397 -4.99535 93.1535 -38.5098 92.0256 -172.264 5.96742 95.5331 -30.1295 19.3677 -1.58265 64.5047 5.50896 17.0251 36.5345 8.41585 2.77924 171.697 13.6597 79.5878 -16.6497 1.77004 -0.0884878 58.9556 1.37208 -3.5693 28.8702 -0.449236 1.10152 -0.120846 7.44068 -89.9441 11.9742 -0.21386 0.134837 0.303258 -0.207702 0.144115 -22.232 -0.244513 0.0643227 -2.21936 -0.244481 0.0643394 91.906 -57.4587 -96.5278 17.2471 24.734 -22.09 -16.4702 -1.08244 -78.4502 -9.1154 -1.20786 2.05534 -97.2127 -51.7573 68.6257 -4.52712 18.1631 -55.4121 16.8151 3.30541 -109.644 15.785 1.57981 3.80399 -22.33 -16.3679 -7.75066 4.49574 -17.9695 -13.032 
14.399 91.6441 -5.02565 93.1376 -38.4267 91.9581 -172.247 5.92285 95.4624 -30.0042 19.3404 -1.64176 64.5546 5.57661 16.8965 36.5721 8.41275 2.8902 171.705 13.5989 79.533 -16.493 1.88677 -0.13763 58.9867 1.30433 -3.64392 28.6749 -0.348626 1.12238 -0.117432 7.44082 -89.9533 11.9832 -0.21153 0.116187 0.312259 -0.206168 0.125379 -22.223 -0.236641 0.0472418 -2.21038 -0.236643 0.0472469 91.9978 -57.25 -96.4337 17.3936 24.7489 -21.8991 -16.5716 -1.08908 -78.4578 -9.03396 -1.18731 2.01461 -97.4205 -51.9641 68.3935 -4.21952 18.152 -55.409 16.8745 3.26005 -109.645 15.6173 1.54959 3.80912 -22.3373 -16.3864 -7.69349 4.53727 -17.9924 -13.068 
14.4167 91.6593 -5.05921 93.1516 -38.4325 91.896 -172.357 5.9105 95.3443 -30.0168 19.1279 -1.60645 64.6561 5.56936 16.9254 36.401 8.23965 2.79607 171.612 13.3796 79.4887 -15.9507 2.04074 -0.122459 58.8755 1.2283 -3.85446 28.6177 -0.454242 1.50221 -0.117119 7.43963 -89.9525 11.994 -0.210255 0.117656 0.323035 -0.20487 0.126794 -22.2122 -0.235904 0.0490231 -2.1996 -0.235905 0.0490286 91.9017 -57.4083 -96.5426 17.0323 24.1682 -21.7042 -15.6942 -0.473643 -78.1591 -10.0256 -1.4774 1.83115 -97.5901 -52.1041 68.1955 -3.9325 18.0091 -55.1992 16.5884 3.32139 -109.758 15.4897 1.54154 3.56201 -22.5218 -16.3639 -7.60389 4.59274 -18.0096 -13.3771 
14.4575 91.6914 -5.09309 93.1603 -38.3671 91.7786 -172.457 5.70496 95.1566 -29.6634 18.8823 -1.59016 64.5767 5.39014 16.853 36.539 8.49396 2.61965 171.57 13.4487 79.3063 -16.162 1.99424 -0.179117 58.7321 1.22492 -3.1933 28.8859 -0.356025 0.818347 -0.142331 7.4352 -89.9395 12.0034 -0.254345 0.148438 0.332497 -0.247566 0.159475 -22.2028 -0.287194 0.0651356 -2.1902 -0.287202 0.0651301 91.8571 -57.3063 -96.6229 17.3635 23.9963 -21.7352 -15.7449 -0.326731 -77.9451 -10.065 -1.49754 1.63053 -97.4384 -52.0486 68.3949 -3.88234 18.0103 -54.9852 16.5928 3.13553 -109.915 15.2653 1.51195 3.39972 -22.5024 -16.2967 -7.45997 4.50368 -17.934 -13.527 
14.4819 91.7259 -5.07438 93.163 -38.28 91.7414 -172.517 5.56939 95.0608 -29.4605 18.3745 -1.52859 64.7107 5.66545 16.3747 36.3925 8.21457 2.82736 171.603 13.3762 79.2977 -16.0807 2.11643 -0.234974 58.7185 1.30166 -3.35797 28.8266 -0.377915 0.971156 -0.136843 7.43311 -89.9277 12.0101 -0.237909 0.17004 0.339165 -0.230206 0.180342 -22.1961 -0.278024 0.0906767 -2.18349 -0.278035 0.090669 91.8456 -57.4442 -96.6156 17.2298 24.2333 -21.5372 -16.2944 -0.56236 -77.9603 -9.75261 -1.39965 1.8441 -97.4626 -51.991 68.3418 -3.84485 17.8701 -55.0746 16.5675 3.21482 -109.857 15.3283 1.51966 3.45397 -22.6489 -16.294 -7.46343 4.56089 -17.9608 -13.6704 
